<?xml version="1.0" encoding="UTF-8"?>
<svg xmlns="http://www.w3.org/2000/svg" xmlns:xlink="http://www.w3.org/1999/xlink" width="2739.42pt" height="2334.51pt" viewBox="0 0 2739.42 2334.51" version="1.1">
<g id="surface1">
<path style=" stroke:none;fill-rule:nonzero;fill:rgb(13.729858%,12.159729%,12.548828%);fill-opacity:1;" d="M 371.003906 1624.085938 C 488.023438 1792.222656 643.648438 1917.464844 817.585938 1996.335938 C 825.597656 1999.964844 833.644531 2003.5 841.726563 2006.933594 C 855.386719 2012.734375 869.144531 2018.261719 883.003906 2023.5 C 896.953125 2028.769531 910.976563 2033.816406 925.109375 2038.507813 C 941.800781 2044.054688 958.621094 2049.191406 975.539063 2053.921875 C 984 2056.292969 992.484375 2058.554688 1001 2060.71875 C 1298.898438 2136.4375 1626.761719 2087.296875 1898.828125 1897.945313 C 2396.386719 1551.652344 2518.984375 867.648438 2172.714844 370.125 C 2172.324219 369.5625 2171.917969 369.082031 2171.523438 368.519531 L 1983.796875 499.175781 C 1984.171875 499.714844 1984.59375 500.21875 1984.984375 500.78125 C 2259.089844 894.617188 2162.039063 1436.089844 1768.171875 1710.214844 C 1725.097656 1740.195313 1680.253906 1765.734375 1634.191406 1786.933594 C 1622.460938 1792.332031 1610.640625 1797.402344 1598.761719 1802.238281 C 1583.980469 1808.253906 1569.101563 1813.882813 1554.121094 1819.039063 C 1547.367188 1821.359375 1540.59375 1823.597656 1533.800781 1825.746094 C 1520.21875 1830.042969 1506.570313 1833.992188 1492.863281 1837.59375 C 1465.453125 1844.800781 1437.820313 1850.621094 1410.066406 1855.070313 C 1375.371094 1860.636719 1340.488281 1864.058594 1305.617188 1865.382813 C 1298.640625 1865.648438 1291.664063 1865.828125 1284.695313 1865.925781 C 1040.667969 1869.316406 799.027344 1770.046875 627.660156 1580.277344 C 603.175781 1553.164063 580.128906 1524.210938 558.714844 1493.441406 C 558.324219 1492.878906 558 1492.308594 557.625 1491.769531 L 369.898438 1622.425781 C 370.289063 1622.984375 370.613281 1623.523438 371.003906 1624.085938 "/>
<path style=" stroke:none;fill-rule:nonzero;fill:rgb(13.729858%,12.159729%,12.548828%);fill-opacity:1;" d="M 839.273438 375.566406 C 689.097656 480.085938 588.425781 629.207031 542.695313 792.652344 C 539.425781 804.324219 536.441406 816.074219 533.738281 827.886719 C 531.035156 839.695313 528.609375 851.5625 526.472656 863.488281 C 523.269531 881.371094 520.699219 899.367188 518.78125 917.441406 C 517.5 929.492188 516.507813 941.578125 515.804688 953.6875 C 506.304688 1117.148438 549.515625 1284.871094 650.308594 1429.695313 C 751.097656 1574.507813 893.363281 1673.285156 1049.949219 1721.152344 C 1061.546875 1724.699219 1073.222656 1727.964844 1084.96875 1730.953125 C 1102.585938 1735.429688 1120.359375 1739.273438 1138.238281 1742.484375 C 1150.160156 1744.617188 1162.136719 1746.46875 1174.148438 1748.035156 C 1186.164063 1749.601563 1198.21875 1750.882813 1210.296875 1751.875 C 1379.449219 1765.765625 1554.261719 1723.164063 1704.4375 1618.640625 C 2047.730469 1379.714844 2132.316406 907.777344 1893.410156 564.515625 C 1654.488281 221.226563 1182.570313 136.636719 839.273438 375.566406 "/>
<path style=" stroke:none;fill-rule:nonzero;fill:rgb(100%,100%,100%);fill-opacity:1;" d="M 872.28125 759.386719 L 872.28125 749.796875 C 872.277344 717.867188 872.402344 685.941406 872.1875 654.015625 C 872.136719 646.367188 871.578125 638.609375 870.160156 631.109375 C 868.058594 620.03125 861.886719 615.089844 850.753906 614.035156 C 834.976563 612.542969 824.824219 618.808594 820.570313 634.179688 C 818.394531 642.023438 817.492188 650.429688 817.394531 658.597656 C 817.035156 688.808594 817.246094 719.027344 817.242188 749.242188 C 817.242188 752.339844 817.242188 755.4375 817.242188 758.363281 C 810.636719 760.230469 754.316406 760.777344 741.128906 759.261719 C 739.496094 753.117188 739.003906 567.820313 740.675781 556.65625 L 811.046875 556.65625 C 811.863281 565.085938 812.671875 573.492188 813.480469 581.902344 C 823.976563 568.488281 835.539063 557.246094 852.058594 552.429688 C 868.351563 547.679688 884.671875 547.65625 900.902344 552.609375 C 917.636719 557.714844 929.289063 568.957031 937.785156 584.984375 C 940.1875 581.933594 942.082031 579.59375 943.902344 577.199219 C 957.574219 559.214844 975.992188 550.394531 998.277344 549.296875 C 1009.679688 548.734375 1021.011719 549.050781 1032.210938 552.023438 C 1054.28125 557.875 1067.679688 572.703125 1075.632813 593.242188 C 1080.199219 605.035156 1082.503906 617.398438 1082.558594 630.007813 C 1082.746094 671.628906 1082.652344 713.246094 1082.644531 754.867188 C 1082.644531 756.230469 1082.417969 757.59375 1082.253906 759.410156 L 1006.023438 759.410156 C 1005.902344 756.359375 1005.679688 753.335938 1005.679688 750.316406 C 1005.65625 718.390625 1005.78125 686.460938 1005.578125 654.535156 C 1005.53125 646.882813 1004.960938 639.140625 1003.675781 631.605469 C 1001.757813 620.394531 995.882813 615.433594 984.667969 614.15625 C 967.242188 612.167969 956.664063 618.992188 952.636719 636.203125 C 950.644531 644.714844 949.882813 653.667969 949.777344 662.4375 C 949.4375 691.507813 949.648438 720.585938 949.648438 749.664063 L 949.648438 759.386719 Z M 872.28125 759.386719 "/>
<path style=" stroke:none;fill-rule:nonzero;fill:rgb(100%,100%,100%);fill-opacity:1;" d="M 949.648438 1079.765625 L 872.277344 1079.765625 C 872.277344 1076.472656 872.285156 1073.453125 872.277344 1070.429688 C 872.222656 1035.941406 872.300781 1001.449219 871.984375 966.960938 C 871.925781 960.785156 870.617188 954.53125 869.183594 948.480469 C 867.449219 941.160156 862.265625 936.742188 855 935.214844 C 839.042969 931.855469 826.078125 936.828125 821.058594 952.953125 C 818.648438 960.703125 817.523438 969.132813 817.414063 977.277344 C 817.003906 1008.058594 817.246094 1038.847656 817.242188 1069.632813 C 817.242188 1072.71875 817.242188 1075.804688 817.242188 1079.515625 L 740.382813 1079.515625 L 740.382813 876.882813 L 810.894531 876.882813 C 811.765625 885.457031 812.636719 894.066406 813.757813 905.105469 C 828.941406 879.925781 849.976563 869.136719 876.824219 869.425781 C 903.742188 869.714844 924.703125 880.492188 937.648438 905.40625 C 939.191406 903.625 940.210938 902.644531 941.003906 901.5 C 954.128906 882.476563 972.207031 872.039063 995.210938 869.949219 C 1007.234375 868.859375 1019.085938 869.429688 1030.855469 872.277344 C 1048.507813 876.546875 1061.519531 886.761719 1070.320313 902.523438 C 1078.125 916.507813 1082.109375 931.722656 1082.289063 947.519531 C 1082.789063 990.554688 1082.566406 1033.601563 1082.601563 1076.640625 C 1082.601563 1077.441406 1082.253906 1078.242188 1081.941406 1079.589844 L 1006.011719 1079.589844 C 1005.898438 1076.65625 1005.683594 1073.652344 1005.675781 1070.648438 C 1005.605469 1036.441406 1005.640625 1002.238281 1005.433594 968.03125 C 1005.402344 962.660156 1004.679688 957.21875 1003.644531 951.9375 C 1001.496094 940.988281 995.507813 935.773438 984.441406 934.503906 C 967.644531 932.582031 956.792969 939.527344 952.71875 956.027344 C 950.757813 963.960938 949.878906 972.335938 949.785156 980.527344 C 949.445313 1010.167969 949.648438 1039.816406 949.648438 1069.460938 C 949.648438 1072.566406 949.648438 1075.675781 949.648438 1079.765625 "/>
<path style=" stroke:none;fill-rule:nonzero;fill:rgb(100%,100%,100%);fill-opacity:1;" d="M 884.753906 1282.769531 C 884.527344 1280.332031 884.523438 1276.863281 883.835938 1273.539063 C 881.410156 1261.785156 877.195313 1250.976563 865.726563 1245.03125 C 848.917969 1236.320313 825.027344 1243.242188 815.242188 1259.457031 C 804.117188 1277.898438 809.507813 1306.785156 826.535156 1319.9375 C 843.800781 1333.273438 869.117188 1327.800781 879.371094 1308.523438 C 883.492188 1300.765625 884.777344 1292.398438 884.753906 1282.769531 M 752.542969 1400.707031 C 755.21875 1400.507813 757.425781 1400.207031 759.632813 1400.203125 C 779.015625 1400.167969 798.398438 1400.261719 817.777344 1400.121094 C 822.011719 1400.09375 825.296875 1400.699219 827.964844 1404.621094 C 831.492188 1409.816406 837.15625 1412.078125 843.203125 1413.210938 C 844.878906 1413.527344 846.597656 1413.652344 848.300781 1413.773438 C 869.953125 1415.316406 878.804688 1407.917969 880.855469 1386.21875 C 881.566406 1378.714844 881.667969 1371.152344 882.136719 1361.839844 C 877.847656 1364.511719 875.265625 1366.074219 872.726563 1367.707031 C 817.398438 1403.355469 746.371094 1369.863281 738.476563 1304.566406 C 735.507813 1280.007813 737.523438 1256.171875 747.441406 1233.386719 C 764.0625 1195.195313 801.253906 1175.773438 841.445313 1183.90625 C 856.617188 1186.972656 868.796875 1194.808594 878.402344 1206.820313 C 879.941406 1208.738281 881.457031 1210.671875 884.660156 1212.34375 L 884.660156 1189.660156 L 955.40625 1189.660156 C 955.691406 1191.539063 956.21875 1193.410156 956.214844 1195.277344 C 956.1875 1249.71875 956.539063 1304.164063 955.75 1358.59375 C 955.535156 1373.25 952.855469 1388.097656 949.511719 1402.4375 C 942.203125 1433.785156 921.726563 1452.652344 890.625 1459.878906 C 862.976563 1466.304688 835.183594 1466.066406 807.621094 1459.410156 C 778.640625 1452.410156 760.679688 1433.894531 753.050781 1405.207031 C 752.707031 1403.910156 752.734375 1402.511719 752.542969 1400.707031 "/>
<path style=" stroke:none;fill-rule:nonzero;fill:rgb(100%,100%,100%);fill-opacity:1;" d="M 1607.664063 759.59375 L 1449.597656 759.59375 C 1440.3125 743.671875 1431.03125 727.757813 1420.875 710.339844 C 1410.8125 727.636719 1401.464844 743.699219 1392.277344 759.492188 L 1307.878906 759.492188 C 1309.910156 756.121094 1311.367188 753.480469 1313.03125 750.976563 C 1333.058594 720.84375 1353.125 690.738281 1373.160156 660.613281 C 1378.496094 652.585938 1378.15625 654.261719 1373.019531 646.539063 C 1355.03125 619.5 1336.941406 592.53125 1318.90625 565.519531 C 1317.191406 562.957031 1315.601563 560.308594 1313.894531 557.605469 C 1320.351563 555.738281 1379.117188 555.089844 1397.078125 556.621094 C 1404.648438 569.519531 1412.386719 582.699219 1420.6875 596.835938 C 1422.816406 593.5625 1424.417969 591.304688 1425.8125 588.925781 C 1431.289063 579.589844 1436.742188 570.238281 1442.101563 560.835938 C 1443.742188 557.957031 1445.453125 556.007813 1449.300781 556.03125 C 1475.214844 556.191406 1501.128906 556.117188 1528.683594 556.117188 C 1526.472656 559.65625 1524.984375 562.214844 1523.335938 564.660156 C 1505 591.816406 1486.613281 618.933594 1468.308594 646.105469 C 1462.648438 654.5 1462.503906 652.542969 1468 660.871094 C 1486.980469 689.644531 1506.027344 718.375 1525.074219 747.105469 C 1526.421875 749.140625 1527.957031 751.054688 1530.972656 752.6875 L 1530.972656 557.707031 C 1537.527344 555.761719 1592.597656 555.160156 1607.039063 556.71875 C 1608.78125 562.707031 1609.449219 745.777344 1607.664063 759.59375 "/>
<path style=" stroke:none;fill-rule:nonzero;fill:rgb(100%,100%,100%);fill-opacity:1;" d="M 1442.796875 971.070313 C 1441.210938 962.738281 1440.273438 954.210938 1437.871094 946.121094 C 1435.074219 936.6875 1428.667969 929.839844 1419.113281 926.523438 C 1400.191406 919.949219 1382.710938 927.78125 1375.132813 946.371094 C 1370.636719 957.40625 1369.839844 968.972656 1370.988281 980.75 C 1371.855469 989.625 1373.800781 998.144531 1378.589844 1005.8125 C 1382.789063 1012.539063 1388.328125 1017.582031 1396.085938 1019.964844 C 1411.460938 1024.683594 1426.613281 1018.613281 1434.578125 1004.230469 C 1440.246094 993.996094 1441.84375 982.796875 1442.796875 971.070313 M 1441.765625 891.453125 L 1441.765625 794.429688 L 1518.453125 794.429688 L 1518.453125 1076.148438 L 1446.175781 1076.148438 C 1445.535156 1069.304688 1444.910156 1062.625 1444.085938 1053.839844 C 1440.855469 1057.441406 1438.886719 1059.605469 1436.953125 1061.792969 C 1425.234375 1075.035156 1410.546875 1081.808594 1392.921875 1083.53125 C 1337.851563 1088.90625 1309.644531 1054.683594 1299.441406 1020.71875 C 1289.738281 988.417969 1289.808594 955.988281 1301.652344 924.210938 C 1310.117188 901.503906 1324.496094 882.984375 1347.308594 873.5 C 1379.445313 860.144531 1409.726563 863.363281 1436.265625 887.640625 C 1437.3125 888.597656 1438.390625 889.519531 1439.476563 890.433594 C 1439.683594 890.609375 1439.988281 890.671875 1441.765625 891.453125 "/>
<path style=" stroke:none;fill-rule:nonzero;fill:rgb(100%,100%,100%);fill-opacity:1;" d="M 1687.394531 1294.597656 C 1687.394531 1307.96875 1689.671875 1320.675781 1698.5 1331.355469 C 1711.957031 1347.636719 1737.980469 1347.441406 1749.667969 1331.023438 C 1762.648438 1312.792969 1763.359375 1280.972656 1751.21875 1262.140625 C 1744.148438 1251.175781 1734.042969 1245.710938 1721.066406 1246.234375 C 1707.835938 1246.765625 1698.882813 1253.847656 1693.226563 1265.585938 C 1688.796875 1274.785156 1687.667969 1284.59375 1687.394531 1294.597656 M 1689.710938 1375.996094 L 1689.710938 1459.175781 L 1613.019531 1459.175781 L 1613.019531 1189.71875 L 1686.058594 1189.71875 C 1686.195313 1193.246094 1686.394531 1196.824219 1686.464844 1200.402344 C 1686.535156 1204.042969 1686.480469 1207.6875 1686.480469 1212.929688 C 1689.007813 1210.730469 1690.605469 1209.738281 1691.683594 1208.347656 C 1724.222656 1166.402344 1790.484375 1178.546875 1816.019531 1216.183594 C 1828.011719 1233.863281 1834.296875 1253.375 1836.300781 1274.394531 C 1838.539063 1297.910156 1836.789063 1321.097656 1828.6875 1343.453125 C 1814.992188 1381.242188 1785.550781 1400.980469 1745.398438 1400.167969 C 1725.242188 1399.761719 1708.234375 1392.769531 1694.417969 1378.058594 C 1693.503906 1377.082031 1692.433594 1376.25 1691.4375 1375.351563 C 1690.863281 1375.566406 1690.285156 1375.78125 1689.710938 1375.996094 "/>
<path style=" stroke:none;fill-rule:nonzero;fill:rgb(100%,100%,100%);fill-opacity:1;" d="M 1758.59375 983.496094 C 1742.667969 988.984375 1727.15625 994.308594 1711.660156 999.683594 C 1708.976563 1000.617188 1706.371094 1001.785156 1703.730469 1002.839844 C 1697.097656 1005.488281 1694.050781 1010.433594 1694.308594 1017.511719 C 1694.59375 1025.175781 1698.335938 1030.804688 1705.636719 1032.875 C 1717.570313 1036.257813 1729.402344 1035.382813 1740.515625 1029.710938 C 1743.691406 1028.085938 1746.8125 1025.488281 1748.800781 1022.554688 C 1756.902344 1010.613281 1759.070313 997.121094 1758.59375 983.496094 M 1702.382813 939.992188 L 1632.109375 939.992188 C 1631.933594 937.972656 1631.539063 936.097656 1631.648438 934.25 C 1633.460938 903.136719 1651.160156 880.425781 1680.976563 871.558594 C 1688.582031 869.296875 1696.492188 867.601563 1704.378906 866.835938 C 1730.304688 864.304688 1756.226563 864.207031 1781.640625 870.976563 C 1811.945313 879.050781 1831.464844 892.539063 1833.496094 935.714844 C 1834.980469 967.292969 1833.882813 998.992188 1834.042969 1030.636719 C 1834.074219 1036.613281 1834.574219 1042.589844 1834.941406 1048.558594 C 1835.484375 1057.394531 1838.613281 1065.179688 1844.597656 1071.769531 C 1845.355469 1072.605469 1845.988281 1073.558594 1846.625 1074.492188 C 1846.738281 1074.652344 1846.582031 1074.996094 1846.480469 1075.804688 L 1765.460938 1075.804688 C 1763.230469 1069.214844 1760.824219 1062.113281 1758.222656 1054.425781 C 1757.011719 1055.554688 1755.9375 1056.34375 1755.136719 1057.34375 C 1743.066406 1072.378906 1727.265625 1080.511719 1708.261719 1082.570313 C 1694.277344 1084.085938 1680.375 1083.710938 1666.71875 1079.867188 C 1637.503906 1071.648438 1620.78125 1048.296875 1622.386719 1017.902344 C 1622.554688 1014.773438 1622.738281 1011.628906 1623.191406 1008.53125 C 1625.578125 992.085938 1633.640625 980.007813 1649.492188 973.480469 C 1670.679688 964.753906 1692.839844 959.644531 1715.109375 954.769531 C 1723.710938 952.886719 1732.230469 950.519531 1740.628906 947.871094 C 1744.636719 946.601563 1748.554688 944.558594 1752.027344 942.164063 C 1760.652344 936.21875 1760.152344 925.207031 1751.265625 919.621094 C 1740.808594 913.042969 1718.300781 915.085938 1709.140625 923.4375 C 1705.515625 926.75 1704.882813 928.273438 1702.382813 939.992188 "/>
<path style=" stroke:none;fill-rule:nonzero;fill:rgb(100%,100%,100%);fill-opacity:1;" d="M 1510.328125 1189.609375 L 1587.023438 1189.609375 L 1587.023438 1392.515625 L 1515.324219 1392.515625 L 1515.324219 1365.089844 C 1512.632813 1367.457031 1511.460938 1368.398438 1510.398438 1369.449219 C 1509.589844 1370.246094 1508.886719 1371.15625 1508.191406 1372.058594 C 1486.550781 1400.261719 1457.453125 1405.132813 1425.339844 1396.890625 C 1401.15625 1390.683594 1379.917969 1371.777344 1376.851563 1340.308594 C 1375.914063 1330.679688 1375.078125 1320.996094 1375.027344 1311.332031 C 1374.8125 1273.132813 1374.925781 1234.933594 1374.945313 1196.734375 C 1374.945313 1194.523438 1375.210938 1192.308594 1375.378906 1189.6875 L 1451.804688 1189.6875 C 1451.9375 1192.65625 1452.1875 1195.660156 1452.1875 1198.664063 C 1452.21875 1230.589844 1452.101563 1262.519531 1452.289063 1294.445313 C 1452.332031 1301.53125 1452.871094 1308.707031 1454.121094 1315.671875 C 1456.195313 1327.214844 1462.351563 1332.257813 1473.988281 1333.171875 C 1495.371094 1334.851563 1507.777344 1324.355469 1510.023438 1302.527344 C 1510.402344 1298.855469 1510.308594 1295.125 1510.3125 1291.421875 C 1510.335938 1260.917969 1510.328125 1230.417969 1510.328125 1199.914063 C 1510.328125 1196.808594 1510.328125 1193.707031 1510.328125 1189.609375 "/>
<path style=" stroke:none;fill-rule:nonzero;fill:rgb(100%,100%,100%);fill-opacity:1;" d="M 1769.65625 634.328125 C 1766.921875 607.417969 1748.738281 600.722656 1731.207031 602.117188 C 1712.734375 603.585938 1700.25 616.316406 1700.417969 634.328125 Z M 1847.746094 677.753906 L 1698.480469 677.753906 C 1700.0625 689.644531 1704.738281 699.027344 1714.238281 705.1875 C 1727.03125 713.488281 1741.070313 714.230469 1755.128906 708.929688 C 1759.160156 707.410156 1762.25 703.488281 1765.929688 700.898438 C 1767.875 699.527344 1770.171875 697.691406 1772.300781 697.699219 C 1795.644531 697.792969 1818.984375 698.203125 1843.273438 698.542969 C 1842.554688 701.125 1842.230469 703.242188 1841.398438 705.136719 C 1830.953125 728.902344 1813.84375 746.152344 1789.90625 756.148438 C 1759.695313 768.769531 1728.429688 771.050781 1697.105469 761.667969 C 1655.101563 749.085938 1631.347656 719.582031 1623.269531 677.074219 C 1620.214844 660.988281 1620.035156 644.699219 1624.101563 628.722656 C 1633.253906 592.738281 1656.523438 569.132813 1690.59375 556.304688 C 1717.265625 546.257813 1744.761719 546.335938 1771.980469 554.65625 C 1790.953125 560.453125 1806.71875 571.417969 1819.484375 586.679688 C 1837.863281 608.65625 1849.675781 643.953125 1847.746094 677.753906 "/>
<path style=" stroke:none;fill-rule:nonzero;fill:rgb(100%,100%,100%);fill-opacity:1;" d="M 1283.0625 1290.871094 C 1282.769531 1290.792969 1282.476563 1290.714844 1282.183594 1290.636719 C 1281.609375 1284.125 1281.304688 1277.578125 1280.367188 1271.121094 C 1279.757813 1266.9375 1278.558594 1262.761719 1277.054688 1258.800781 C 1270.441406 1241.402344 1254.472656 1233.496094 1236.457031 1238.328125 C 1222.230469 1242.144531 1215.886719 1252.847656 1212.875 1265.9375 C 1208.996094 1282.785156 1209.085938 1299.84375 1212.980469 1316.675781 C 1214.234375 1322.089844 1216.847656 1327.363281 1219.679688 1332.207031 C 1223.761719 1339.191406 1230.460938 1343.050781 1238.304688 1344.59375 C 1257.089844 1348.289063 1271.941406 1340.082031 1277.472656 1321.71875 C 1280.46875 1311.777344 1281.269531 1301.171875 1283.0625 1290.871094 M 1246.082031 1399.882813 C 1229.039063 1400.40625 1212.585938 1397.417969 1196.960938 1390.609375 C 1148.859375 1369.636719 1127.886719 1324.425781 1132.984375 1277.871094 C 1139.367188 1219.617188 1184.234375 1189.652344 1225.722656 1183.738281 C 1249.074219 1180.40625 1271.828125 1182.195313 1293.695313 1191.125 C 1340.832031 1210.375 1362.597656 1253.902344 1359.046875 1300.46875 C 1354.230469 1363.714844 1302.304688 1398.828125 1252.917969 1399.875 C 1250.640625 1399.925781 1248.363281 1399.882813 1246.082031 1399.882813 "/>
<path style=" stroke:none;fill-rule:nonzero;fill:rgb(100%,100%,100%);fill-opacity:1;" d="M 1246.902344 658.957031 C 1245.574219 646.765625 1244.988281 634.863281 1240.109375 623.628906 C 1236.023438 614.214844 1229.539063 607.210938 1219.3125 605.082031 C 1200.46875 601.160156 1185.882813 607.261719 1178.8125 625.765625 C 1174.480469 637.121094 1173.390625 649.128906 1174.125 661.042969 C 1174.734375 670.878906 1176.371094 680.835938 1179.078125 690.304688 C 1181.835938 699.941406 1188.324219 707.328125 1198.480469 710.257813 C 1215.371094 715.140625 1234.035156 710.90625 1240.988281 689.746094 C 1244.222656 679.894531 1245.007813 669.242188 1246.902344 658.957031 M 1210.273438 549.195313 C 1235.503906 548.847656 1258.941406 555.132813 1279.46875 569.90625 C 1312.160156 593.425781 1325.136719 626.449219 1322.917969 665.796875 C 1319.410156 728.078125 1268.152344 765.855469 1214.816406 766.882813 C 1191.191406 767.339844 1168.910156 763.101563 1148.40625 751.089844 C 1109.566406 728.335938 1091.777344 687.546875 1096.984375 643.539063 C 1104.300781 581.667969 1155.605469 550.667969 1203.433594 549.203125 C 1205.710938 549.136719 1207.992188 549.195313 1210.273438 549.195313 "/>
<path style=" stroke:none;fill-rule:nonzero;fill:rgb(100%,100%,100%);fill-opacity:1;" d="M 1244.539063 954.519531 C 1242.023438 930.941406 1226.585938 920.910156 1205.554688 922.535156 C 1187.773438 923.910156 1175.316406 936.972656 1175.265625 954.519531 Z M 1296.140625 909.644531 C 1280.722656 936.960938 1279.34375 966.605469 1281.746094 997.828125 L 1174.078125 997.828125 C 1174.300781 1012.242188 1183.625 1025.082031 1196.789063 1029.792969 C 1205.875 1033.050781 1215.269531 1033.265625 1224.632813 1031.441406 C 1230.628906 1030.273438 1236.09375 1027.464844 1239.738281 1022.433594 C 1242.445313 1018.691406 1245.679688 1017.902344 1249.96875 1017.984375 C 1261.882813 1018.207031 1273.808594 1018.0625 1285.039063 1018.0625 C 1290.539063 1029.507813 1295.453125 1039.71875 1300.585938 1050.402344 C 1295.085938 1057.820313 1287.617188 1063.921875 1279.347656 1069.050781 C 1255.746094 1083.679688 1229.726563 1088.441406 1202.386719 1087.382813 C 1188.917969 1086.859375 1175.714844 1084.582031 1163.199219 1079.464844 C 1125.96875 1064.234375 1104.984375 1035.96875 1097.980469 996.914063 C 1094.773438 979.027344 1094.753906 961.003906 1100.46875 943.605469 C 1112.90625 905.765625 1139.714844 882.894531 1177.625 873.09375 C 1201.851563 866.828125 1226.28125 867.890625 1250.050781 876.269531 C 1268.480469 882.769531 1283.804688 893.746094 1296.140625 909.644531 "/>
<path style=" stroke:none;fill-rule:nonzero;fill:rgb(100%,100%,100%);fill-opacity:1;" d="M 1057.035156 1392.632813 L 980.285156 1392.632813 L 980.285156 1189.691406 L 1051.496094 1189.691406 L 1051.496094 1214.3125 C 1052.007813 1214.664063 1052.519531 1215.015625 1053.03125 1215.371094 C 1073.660156 1189.386719 1098.996094 1177.746094 1131.878906 1187.804688 L 1131.878906 1250.667969 C 1120.792969 1250.667969 1110 1249.777344 1099.40625 1250.855469 C 1078.359375 1252.996094 1065.160156 1264.835938 1059.96875 1285.472656 C 1058.246094 1292.3125 1057.300781 1299.511719 1057.210938 1306.5625 C 1056.871094 1331.925781 1057.050781 1357.296875 1057.035156 1382.664063 C 1057.035156 1385.742188 1057.035156 1388.820313 1057.035156 1392.632813 "/>
<path style=" stroke:none;fill-rule:nonzero;fill:rgb(100%,100%,100%);fill-opacity:1;" d="M 1607.375 1075.878906 L 1531.386719 1075.878906 L 1531.386719 873.925781 C 1537.46875 872.226563 1593.15625 871.664063 1606.988281 873.152344 C 1608.589844 879.3125 1609.027344 1065.109375 1607.375 1075.878906 "/>
<path style=" stroke:none;fill-rule:nonzero;fill:rgb(100%,100%,100%);fill-opacity:1;" d="M 1531.460938 531.097656 L 1531.460938 477.929688 C 1537.609375 476.210938 1596.609375 475.765625 1608.015625 477.464844 C 1608.925781 495.0625 1608.390625 512.8125 1608.347656 531.097656 Z M 1531.460938 531.097656 "/>
<path style=" stroke:none;fill-rule:nonzero;fill:rgb(100%,100%,100%);fill-opacity:1;" d="M 1531.167969 847.273438 L 1531.167969 793.007813 C 1556.554688 792.597656 1581.707031 792.910156 1607.847656 792.792969 C 1608.730469 811.234375 1608.128906 828.953125 1608.285156 847.273438 Z M 1531.167969 847.273438 "/>
<path style=" stroke:none;fill-rule:nonzero;fill:rgb(100%,100%,100%);fill-opacity:1;" d="M 956.109375 1483.910156 C 966.632813 1483.910156 978.03125 1489.644531 979.988281 1503.21875 L 967.214844 1503.21875 C 965.398438 1498.066406 961.550781 1495.742188 956.109375 1495.742188 C 948.488281 1495.742188 943.476563 1501.476563 943.476563 1509.898438 C 943.476563 1517.375 948.414063 1523.90625 956.109375 1523.976563 C 961.625 1523.976563 966.050781 1521.21875 967.433594 1515.777344 L 980.207031 1515.777344 C 978.320313 1530.148438 966.921875 1535.808594 956.109375 1535.808594 C 943.1875 1535.882813 930.125 1527.171875 930.050781 1509.898438 C 930.125 1492.621094 943.1875 1483.910156 956.109375 1483.910156 "/>
<path style=" stroke:none;fill-rule:nonzero;fill:rgb(100%,100%,100%);fill-opacity:1;" d="M 1035.011719 1484.347656 L 1039.660156 1484.347656 L 1039.660156 1535.300781 L 1026.375 1535.300781 L 1026.375 1512.65625 L 1015.558594 1523.980469 L 1014.109375 1523.980469 L 1003.367188 1512.65625 L 1003.367188 1535.300781 L 990.082031 1535.300781 L 990.082031 1484.347656 L 994.871094 1484.347656 L 1014.761719 1506.410156 Z M 1035.011719 1484.347656 "/>
<path style=" stroke:none;fill-rule:nonzero;fill:rgb(100%,100%,100%);fill-opacity:1;" d="M 1088.292969 1509.96875 C 1088.292969 1491.679688 1062.816406 1491.679688 1062.816406 1509.96875 C 1062.816406 1528.40625 1088.292969 1528.40625 1088.292969 1509.96875 M 1049.460938 1509.96875 C 1049.460938 1474.839844 1101.574219 1474.839844 1101.574219 1509.96875 C 1101.574219 1545.175781 1049.460938 1545.175781 1049.460938 1509.96875 "/>
<path style=" stroke:none;fill-rule:nonzero;fill:rgb(100%,100%,100%);fill-opacity:1;" d="M 1106.371094 1496.105469 L 1106.371094 1484.492188 L 1144.113281 1484.492188 L 1144.113281 1496.105469 L 1131.703125 1496.105469 L 1131.703125 1535.300781 L 1118.855469 1535.300781 L 1118.855469 1496.105469 Z M 1106.371094 1496.105469 "/>
<path style=" stroke:none;fill-rule:nonzero;fill:rgb(100%,100%,100%);fill-opacity:1;" d="M 1174.457031 1496.105469 C 1171.410156 1496.03125 1168.144531 1496.105469 1165.167969 1496.105469 L 1165.167969 1510.621094 L 1174.457031 1510.621094 C 1181.570313 1510.621094 1182.007813 1496.179688 1174.457031 1496.105469 M 1152.171875 1535.300781 L 1152.171875 1484.492188 L 1174.53125 1484.492188 C 1198.847656 1484.566406 1198.847656 1522.308594 1174.53125 1522.308594 L 1165.167969 1522.308594 L 1165.167969 1535.300781 Z M 1152.171875 1535.300781 "/>
<path style=" stroke:none;fill-rule:nonzero;fill:rgb(100%,100%,100%);fill-opacity:1;" d="M 1207.269531 1535.375 L 1202.621094 1535.375 L 1202.621094 1484.492188 L 1215.90625 1484.492188 L 1215.90625 1509.390625 L 1241.601563 1484.273438 L 1246.320313 1484.273438 L 1246.320313 1535.300781 L 1232.890625 1535.300781 L 1232.890625 1510.332031 Z M 1207.269531 1535.375 "/>
<path style=" stroke:none;fill-rule:nonzero;fill:rgb(100%,100%,100%);fill-opacity:1;" d="M 1292.488281 1535.300781 L 1279.277344 1535.300781 L 1279.277344 1484.492188 L 1310.925781 1484.492188 L 1310.925781 1496.105469 L 1292.488281 1496.105469 Z M 1292.488281 1535.300781 "/>
<path style=" stroke:none;fill-rule:nonzero;fill:rgb(100%,100%,100%);fill-opacity:1;" d="M 1321.816406 1535.300781 L 1309.113281 1535.300781 L 1309.113281 1533.414063 L 1331.976563 1483.839844 L 1337.566406 1483.839844 L 1360.503906 1533.414063 L 1360.503906 1535.300781 L 1347.800781 1535.300781 L 1334.734375 1505.542969 Z M 1321.816406 1535.300781 "/>
<path style=" stroke:none;fill-rule:nonzero;fill:rgb(100%,100%,100%);fill-opacity:1;" d="M 1389.464844 1504.453125 L 1383.730469 1517.808594 L 1395.34375 1517.808594 Z M 1399.554688 1528.914063 L 1379.523438 1528.914063 L 1376.546875 1535.300781 L 1363.84375 1535.300781 L 1363.84375 1533.414063 L 1386.707031 1483.839844 L 1392.296875 1483.839844 L 1415.234375 1533.414063 L 1415.234375 1535.300781 L 1402.53125 1535.300781 Z M 1399.554688 1528.914063 "/>
<path style=" stroke:none;fill-rule:nonzero;fill:rgb(100%,100%,100%);fill-opacity:1;" d="M 1434.472656 1515.125 L 1434.472656 1523.761719 L 1444.851563 1523.761719 C 1450.078125 1523.761719 1450.003906 1515.125 1444.777344 1515.125 Z M 1434.472656 1496.105469 L 1434.472656 1504.308594 L 1442.671875 1504.308594 C 1447.828125 1504.308594 1447.828125 1496.105469 1442.601563 1496.105469 Z M 1455.449219 1508.882813 C 1459.585938 1510.984375 1461.546875 1514.761719 1461.546875 1519.261719 C 1461.472656 1528.117188 1456.101563 1535.300781 1445.722656 1535.300781 L 1421.914063 1535.300781 L 1421.914063 1484.492188 L 1443.617188 1484.492188 C 1452.402344 1484.492188 1459.441406 1491.3125 1459.441406 1500.097656 C 1459.441406 1503.144531 1457.917969 1506.847656 1455.449219 1508.882813 "/>
<path style=" stroke:none;fill-rule:nonzero;fill:rgb(100%,100%,100%);fill-opacity:1;" d="M 1514.027344 1535.300781 L 1500.746094 1535.300781 L 1500.746094 1514.90625 L 1485.066406 1514.90625 L 1485.066406 1535.300781 L 1471.78125 1535.300781 L 1471.78125 1484.492188 L 1485.066406 1484.492188 L 1485.066406 1502.929688 L 1500.746094 1502.929688 L 1500.746094 1484.492188 L 1514.027344 1484.492188 Z M 1514.027344 1535.300781 "/>
<path style=" stroke:none;fill-rule:nonzero;fill:rgb(100%,100%,100%);fill-opacity:1;" d="M 1562.734375 1509.96875 C 1562.734375 1491.679688 1537.257813 1491.679688 1537.257813 1509.96875 C 1537.257813 1528.40625 1562.734375 1528.40625 1562.734375 1509.96875 M 1523.902344 1509.96875 C 1523.902344 1474.839844 1576.019531 1474.839844 1576.019531 1509.96875 C 1576.019531 1545.175781 1523.902344 1545.175781 1523.902344 1509.96875 "/>
<path style=" stroke:none;fill-rule:nonzero;fill:rgb(100%,100%,100%);fill-opacity:1;" d="M 1617.542969 1496.105469 L 1598.742188 1496.105469 L 1598.742188 1503.292969 L 1616.015625 1503.292969 L 1616.015625 1514.832031 L 1598.742188 1514.832031 L 1598.742188 1523.761719 L 1618.195313 1523.761719 L 1618.195313 1535.300781 L 1585.820313 1535.300781 L 1585.820313 1484.492188 L 1617.542969 1484.492188 Z M 1617.542969 1496.105469 "/>
<path style=" stroke:none;fill-rule:nonzero;fill:rgb(100%,100%,100%);fill-opacity:1;" d="M 1628.792969 1528.335938 C 1628.792969 1524.269531 1631.914063 1521.65625 1635.90625 1521.65625 C 1639.898438 1521.65625 1643.019531 1524.269531 1643.019531 1528.335938 C 1643.019531 1532.328125 1639.898438 1534.9375 1635.90625 1534.9375 C 1631.914063 1534.9375 1628.792969 1532.328125 1628.792969 1528.335938 M 1628.503906 1483.402344 L 1643.019531 1483.402344 L 1642.222656 1519.769531 L 1629.589844 1519.769531 Z M 1628.503906 1483.402344 "/>
</g>
</svg>
