<?xml version="1.0" encoding="UTF-8"?>
<svg xmlns="http://www.w3.org/2000/svg" xmlns:xlink="http://www.w3.org/1999/xlink" width="850.394pt" height="850.394pt" viewBox="0 0 850.394 850.394" version="1.1">
<g id="surface1">
<path style=" stroke:none;fill-rule:nonzero;fill:rgb(13.729858%,12.159729%,12.548828%);fill-opacity:1;" d="M 44.941406 599.136719 C 89.496094 663.152344 148.75 710.839844 214.976563 740.867188 C 218.027344 742.25 221.089844 743.597656 224.167969 744.902344 C 229.371094 747.113281 234.609375 749.214844 239.882813 751.210938 C 245.195313 753.21875 250.535156 755.136719 255.917969 756.925781 C 262.273438 759.035156 268.675781 760.992188 275.117188 762.792969 C 278.339844 763.695313 281.570313 764.558594 284.8125 765.382813 C 398.234375 794.210938 523.070313 775.5 626.65625 703.40625 C 816.101563 571.554688 862.78125 311.125 730.941406 121.691406 C 730.789063 121.480469 730.632813 121.296875 730.484375 121.082031 L 659.007813 170.828125 C 659.152344 171.035156 659.3125 171.226563 659.460938 171.441406 C 763.828125 321.390625 726.875 527.554688 576.910156 631.929688 C 560.507813 643.34375 543.4375 653.070313 525.898438 661.140625 C 521.429688 663.195313 516.929688 665.125 512.40625 666.964844 C 506.78125 669.257813 501.117188 671.398438 495.410156 673.363281 C 492.839844 674.246094 490.261719 675.097656 487.671875 675.917969 C 482.503906 677.550781 477.304688 679.054688 472.085938 680.429688 C 461.652344 683.171875 451.128906 685.386719 440.5625 687.082031 C 427.351563 689.199219 414.070313 690.503906 400.792969 691.007813 C 398.136719 691.109375 395.484375 691.179688 392.828125 691.214844 C 299.914063 692.507813 207.910156 654.707031 142.664063 582.453125 C 133.339844 572.132813 124.566406 561.109375 116.414063 549.394531 C 116.265625 549.179688 116.140625 548.960938 116 548.753906 L 115.996094 548.757813 L 44.523438 598.503906 C 44.671875 598.71875 44.792969 598.921875 44.941406 599.136719 "/>
<path style=" stroke:none;fill-rule:nonzero;fill:rgb(13.729858%,12.159729%,12.548828%);fill-opacity:1;" d="M 223.234375 123.765625 C 166.054688 163.558594 127.722656 220.335938 110.3125 282.570313 C 109.070313 287.011719 107.933594 291.488281 106.902344 295.984375 C 105.875 300.480469 104.949219 305 104.136719 309.539063 C 102.917969 316.347656 101.9375 323.199219 101.207031 330.082031 C 100.71875 334.671875 100.34375 339.273438 100.074219 343.882813 C 96.457031 406.121094 112.910156 469.980469 151.285156 525.121094 C 189.660156 580.257813 243.828125 617.867188 303.449219 636.09375 C 307.867188 637.445313 312.308594 638.6875 316.785156 639.824219 C 323.492188 641.53125 330.257813 642.992188 337.066406 644.214844 C 341.605469 645.027344 346.164063 645.730469 350.738281 646.328125 C 355.3125 646.925781 359.902344 647.410156 364.5 647.789063 C 428.90625 653.078125 495.464844 636.859375 552.644531 597.0625 C 683.351563 506.09375 715.558594 326.402344 624.59375 195.707031 C 533.625 65 353.945313 32.792969 223.234375 123.765625 "/>
<path style=" stroke:none;fill-rule:nonzero;fill:rgb(100%,100%,100%);fill-opacity:1;" d="M 235.800781 269.902344 L 235.800781 266.25 C 235.800781 254.09375 235.847656 241.9375 235.765625 229.785156 C 235.746094 226.871094 235.535156 223.917969 234.996094 221.0625 C 234.195313 216.84375 231.84375 214.964844 227.605469 214.5625 C 221.597656 213.992188 217.734375 216.378906 216.113281 222.230469 C 215.285156 225.214844 214.941406 228.417969 214.90625 231.527344 C 214.765625 243.03125 214.847656 254.535156 214.847656 266.042969 L 214.847656 269.511719 C 212.332031 270.222656 190.886719 270.433594 185.867188 269.855469 C 185.246094 267.515625 185.058594 196.964844 185.695313 192.714844 L 212.488281 192.714844 C 212.796875 195.925781 213.105469 199.125 213.414063 202.328125 C 217.410156 197.21875 221.8125 192.9375 228.101563 191.105469 C 234.304688 189.296875 240.519531 189.289063 246.699219 191.171875 C 253.070313 193.117188 257.507813 197.398438 260.742188 203.5 C 261.65625 202.339844 262.378906 201.449219 263.070313 200.535156 C 268.277344 193.6875 275.289063 190.332031 283.777344 189.914063 C 288.117188 189.699219 292.429688 189.820313 296.695313 190.949219 C 305.097656 193.179688 310.199219 198.824219 313.226563 206.644531 C 314.964844 211.132813 315.84375 215.839844 315.867188 220.644531 C 315.9375 236.488281 315.902344 252.335938 315.898438 268.179688 C 315.898438 268.703125 315.808594 269.21875 315.75 269.914063 L 286.722656 269.914063 C 286.675781 268.75 286.59375 267.597656 286.59375 266.449219 C 286.582031 254.292969 286.632813 242.136719 286.554688 229.980469 C 286.535156 227.066406 286.320313 224.121094 285.828125 221.25 C 285.101563 216.984375 282.863281 215.09375 278.59375 214.605469 C 271.957031 213.847656 267.929688 216.449219 266.398438 223 C 265.640625 226.242188 265.347656 229.652344 265.308594 232.988281 C 265.179688 244.058594 265.257813 255.128906 265.257813 266.203125 L 265.257813 269.902344 Z M 235.800781 269.902344 "/>
<path style=" stroke:none;fill-rule:nonzero;fill:rgb(100%,100%,100%);fill-opacity:1;" d="M 265.261719 391.886719 L 235.800781 391.886719 C 235.800781 390.632813 235.804688 389.484375 235.800781 388.332031 C 235.78125 375.199219 235.808594 362.066406 235.6875 348.9375 C 235.667969 346.585938 235.167969 344.203125 234.621094 341.898438 C 233.960938 339.113281 231.988281 337.429688 229.222656 336.847656 C 223.144531 335.570313 218.210938 337.464844 216.300781 343.601563 C 215.382813 346.554688 214.953125 349.765625 214.910156 352.863281 C 214.757813 364.582031 214.847656 376.308594 214.847656 388.027344 C 214.847656 389.203125 214.847656 390.378906 214.847656 391.789063 L 185.582031 391.789063 L 185.582031 314.640625 L 212.429688 314.640625 C 212.761719 317.902344 213.09375 321.183594 213.519531 325.386719 C 219.300781 315.796875 227.308594 311.691406 237.53125 311.800781 C 247.78125 311.910156 255.761719 316.015625 260.691406 325.5 C 261.277344 324.824219 261.667969 324.449219 261.96875 324.011719 C 266.964844 316.769531 273.847656 312.792969 282.609375 312 C 287.183594 311.585938 291.699219 311.800781 296.179688 312.886719 C 302.898438 314.511719 307.855469 318.402344 311.203125 324.402344 C 314.175781 329.726563 315.691406 335.519531 315.761719 341.535156 C 315.953125 357.921875 315.867188 374.308594 315.882813 390.695313 C 315.882813 391.003906 315.75 391.308594 315.632813 391.820313 L 286.71875 391.820313 C 286.675781 390.703125 286.59375 389.558594 286.59375 388.414063 C 286.566406 375.390625 286.578125 362.367188 286.5 349.34375 C 286.488281 347.296875 286.214844 345.226563 285.820313 343.214844 C 285 339.046875 282.71875 337.0625 278.507813 336.578125 C 272.113281 335.847656 267.980469 338.492188 266.429688 344.773438 C 265.683594 347.796875 265.347656 350.984375 265.3125 354.101563 C 265.183594 365.386719 265.261719 376.675781 265.261719 387.964844 Z M 265.261719 391.886719 "/>
<path style=" stroke:none;fill-rule:nonzero;fill:rgb(100%,100%,100%);fill-opacity:1;" d="M 240.550781 469.179688 C 240.464844 468.25 240.464844 466.933594 240.199219 465.664063 C 239.277344 461.191406 237.675781 457.074219 233.308594 454.8125 C 226.90625 451.492188 217.808594 454.128906 214.085938 460.304688 C 209.847656 467.324219 211.902344 478.324219 218.386719 483.332031 C 224.957031 488.410156 234.597656 486.324219 238.5 478.984375 C 240.070313 476.03125 240.558594 472.847656 240.550781 469.179688 M 190.210938 514.082031 C 191.230469 514.007813 192.070313 513.894531 192.910156 513.894531 C 200.289063 513.878906 207.671875 513.914063 215.050781 513.863281 C 216.660156 513.851563 217.914063 514.078125 218.929688 515.574219 C 220.273438 517.550781 222.429688 518.414063 224.730469 518.84375 C 225.367188 518.964844 226.023438 519.011719 226.671875 519.058594 C 234.914063 519.644531 238.285156 516.828125 239.066406 508.566406 C 239.335938 505.710938 239.375 502.828125 239.554688 499.285156 C 237.921875 500.304688 236.9375 500.898438 235.972656 501.519531 C 214.90625 515.09375 187.863281 502.339844 184.855469 477.480469 C 183.726563 468.128906 184.492188 459.054688 188.269531 450.378906 C 194.597656 435.835938 208.757813 428.441406 224.0625 431.535156 C 229.839844 432.707031 234.476563 435.6875 238.132813 440.261719 C 238.71875 440.992188 239.296875 441.730469 240.515625 442.367188 L 240.515625 433.726563 L 267.453125 433.726563 C 267.558594 434.445313 267.761719 435.15625 267.761719 435.867188 C 267.75 456.597656 267.882813 477.324219 267.582031 498.050781 C 267.5 503.632813 266.480469 509.285156 265.207031 514.742188 C 262.425781 526.679688 254.628906 533.863281 242.785156 536.613281 C 232.261719 539.058594 221.679688 538.96875 211.183594 536.433594 C 200.148438 533.769531 193.3125 526.71875 190.40625 515.796875 C 190.273438 515.304688 190.285156 514.773438 190.210938 514.082031 "/>
<path style=" stroke:none;fill-rule:nonzero;fill:rgb(100%,100%,100%);fill-opacity:1;" d="M 515.796875 269.984375 L 455.613281 269.984375 C 452.078125 263.917969 448.546875 257.859375 444.675781 251.230469 C 440.847656 257.816406 437.289063 263.929688 433.789063 269.945313 L 401.65625 269.945313 C 402.429688 268.660156 402.984375 267.65625 403.617188 266.703125 C 411.242188 255.230469 418.882813 243.765625 426.507813 232.292969 C 428.542969 229.238281 428.414063 229.878906 426.457031 226.9375 C 419.609375 216.640625 412.71875 206.371094 405.851563 196.089844 C 405.199219 195.113281 404.59375 194.105469 403.945313 193.074219 C 406.402344 192.363281 428.777344 192.117188 435.617188 192.699219 C 438.5 197.613281 441.445313 202.628906 444.605469 208.011719 C 445.417969 206.765625 446.027344 205.90625 446.558594 205 C 448.640625 201.445313 450.71875 197.886719 452.757813 194.304688 C 453.382813 193.210938 454.035156 192.46875 455.5 192.476563 C 465.367188 192.539063 475.234375 192.507813 485.726563 192.507813 C 484.882813 193.855469 484.316406 194.832031 483.691406 195.761719 C 476.707031 206.101563 469.707031 216.425781 462.738281 226.773438 C 460.585938 229.96875 460.527344 229.222656 462.621094 232.394531 C 469.847656 243.347656 477.097656 254.289063 484.351563 265.226563 C 484.863281 266.003906 485.449219 266.730469 486.597656 267.351563 L 486.597656 193.113281 C 489.09375 192.375 510.0625 192.144531 515.558594 192.738281 C 516.222656 195.019531 516.476563 264.722656 515.796875 269.984375 "/>
<path style=" stroke:none;fill-rule:nonzero;fill:rgb(100%,100%,100%);fill-opacity:1;" d="M 453.023438 350.5 C 452.421875 347.328125 452.0625 344.082031 451.148438 341 C 450.085938 337.410156 447.644531 334.804688 444.007813 333.539063 C 436.800781 331.039063 430.148438 334.019531 427.261719 341.097656 C 425.550781 345.296875 425.246094 349.703125 425.683594 354.1875 C 426.015625 357.5625 426.753906 360.808594 428.578125 363.730469 C 430.175781 366.289063 432.285156 368.210938 435.238281 369.117188 C 441.09375 370.914063 446.863281 368.601563 449.894531 363.125 C 452.054688 359.230469 452.660156 354.964844 453.023438 350.5 M 452.632813 320.1875 L 452.632813 283.246094 L 481.828125 283.246094 L 481.828125 390.507813 L 454.3125 390.507813 C 454.066406 387.902344 453.828125 385.359375 453.515625 382.015625 C 452.285156 383.386719 451.535156 384.210938 450.800781 385.042969 C 446.335938 390.085938 440.746094 392.664063 434.035156 393.320313 C 413.066406 395.367188 402.328125 382.335938 398.441406 369.40625 C 394.75 357.105469 394.773438 344.757813 399.285156 332.660156 C 402.507813 324.015625 407.980469 316.960938 416.667969 313.351563 C 428.902344 308.265625 440.433594 309.492188 450.539063 318.734375 C 450.9375 319.101563 451.347656 319.453125 451.761719 319.800781 C 451.839844 319.867188 451.957031 319.890625 452.632813 320.1875 "/>
<path style=" stroke:none;fill-rule:nonzero;fill:rgb(100%,100%,100%);fill-opacity:1;" d="M 546.152344 473.683594 C 546.152344 478.773438 547.023438 483.613281 550.382813 487.679688 C 555.507813 493.878906 565.414063 493.804688 569.863281 487.550781 C 574.808594 480.613281 575.078125 468.496094 570.453125 461.324219 C 567.765625 457.152344 563.914063 455.070313 558.976563 455.269531 C 553.9375 455.472656 550.527344 458.167969 548.375 462.636719 C 546.6875 466.140625 546.257813 469.875 546.152344 473.683594 M 547.035156 504.675781 L 547.035156 536.347656 L 517.835938 536.347656 L 517.835938 433.75 L 545.644531 433.75 C 545.699219 435.09375 545.773438 436.457031 545.800781 437.820313 C 545.828125 439.203125 545.808594 440.59375 545.808594 442.585938 C 546.769531 441.75 547.375 441.371094 547.789063 440.84375 C 560.175781 424.871094 585.40625 429.496094 595.128906 443.828125 C 599.695313 450.558594 602.089844 457.988281 602.851563 465.992188 C 603.703125 474.945313 603.035156 483.773438 599.949219 492.285156 C 594.738281 506.675781 583.527344 514.1875 568.238281 513.878906 C 560.566406 513.722656 554.089844 511.0625 548.828125 505.460938 C 548.480469 505.089844 548.074219 504.773438 547.695313 504.429688 C 547.476563 504.511719 547.257813 504.59375 547.035156 504.675781 "/>
<path style=" stroke:none;fill-rule:nonzero;fill:rgb(100%,100%,100%);fill-opacity:1;" d="M 573.261719 355.234375 C 567.199219 357.320313 561.292969 359.347656 555.394531 361.398438 C 554.371094 361.75 553.378906 362.195313 552.375 362.597656 C 549.847656 363.605469 548.6875 365.488281 548.789063 368.183594 C 548.894531 371.101563 550.320313 373.246094 553.097656 374.03125 C 557.644531 375.320313 562.148438 374.988281 566.378906 372.828125 C 567.589844 372.210938 568.777344 371.222656 569.535156 370.101563 C 572.621094 365.558594 573.445313 360.417969 573.261719 355.234375 M 551.859375 338.667969 L 525.105469 338.667969 C 525.039063 337.898438 524.886719 337.183594 524.929688 336.480469 C 525.621094 324.636719 532.359375 315.988281 543.710938 312.613281 C 546.605469 311.75 549.617188 311.105469 552.621094 310.8125 C 562.492188 309.851563 572.363281 309.8125 582.039063 312.390625 C 593.578125 315.464844 601.007813 320.601563 601.78125 337.039063 C 602.347656 349.0625 601.929688 361.132813 601.992188 373.179688 C 602.003906 375.457031 602.191406 377.730469 602.332031 380.003906 C 602.539063 383.371094 603.730469 386.332031 606.007813 388.84375 C 606.296875 389.160156 606.539063 389.523438 606.78125 389.878906 C 606.824219 389.941406 606.765625 390.070313 606.726563 390.378906 L 575.878906 390.378906 C 575.027344 387.871094 574.113281 385.167969 573.121094 382.238281 C 572.660156 382.667969 572.253906 382.96875 571.945313 383.351563 C 567.351563 389.074219 561.335938 392.171875 554.097656 392.957031 C 548.773438 393.53125 543.480469 393.386719 538.28125 391.925781 C 527.160156 388.796875 520.792969 379.90625 521.402344 368.332031 C 521.464844 367.140625 521.539063 365.945313 521.707031 364.765625 C 522.617188 358.503906 525.6875 353.90625 531.722656 351.417969 C 539.789063 348.097656 548.226563 346.152344 556.707031 344.292969 C 559.980469 343.578125 563.226563 342.675781 566.421875 341.667969 C 567.949219 341.1875 569.441406 340.40625 570.761719 339.496094 C 574.046875 337.230469 573.855469 333.039063 570.472656 330.910156 C 566.492188 328.40625 557.921875 329.183594 554.433594 332.367188 C 553.054688 333.625 552.8125 334.207031 551.859375 338.667969 "/>
<path style=" stroke:none;fill-rule:nonzero;fill:rgb(100%,100%,100%);fill-opacity:1;" d="M 478.738281 433.710938 L 507.941406 433.710938 L 507.941406 510.964844 L 480.640625 510.964844 L 480.640625 500.523438 C 479.613281 501.425781 479.167969 501.785156 478.761719 502.183594 C 478.457031 502.484375 478.1875 502.832031 477.925781 503.175781 C 469.683594 513.914063 458.605469 515.769531 446.378906 512.632813 C 437.167969 510.269531 429.082031 503.070313 427.914063 491.089844 C 427.558594 487.421875 427.242188 483.734375 427.222656 480.054688 C 427.140625 465.511719 427.183594 450.96875 427.191406 436.421875 C 427.191406 435.582031 427.289063 434.738281 427.355469 433.738281 L 456.453125 433.738281 C 456.503906 434.871094 456.601563 436.011719 456.601563 437.15625 C 456.613281 449.3125 456.566406 461.46875 456.640625 473.625 C 456.65625 476.324219 456.859375 479.054688 457.335938 481.707031 C 458.125 486.101563 460.46875 488.023438 464.902344 488.371094 C 473.042969 489.011719 477.765625 485.011719 478.621094 476.703125 C 478.765625 475.304688 478.730469 473.882813 478.730469 472.472656 C 478.738281 460.859375 478.738281 449.246094 478.738281 437.632813 Z M 478.738281 433.710938 "/>
<path style=" stroke:none;fill-rule:nonzero;fill:rgb(100%,100%,100%);fill-opacity:1;" d="M 577.476563 222.285156 C 576.433594 212.042969 569.511719 209.492188 562.835938 210.023438 C 555.800781 210.582031 551.050781 215.429688 551.113281 222.285156 Z M 607.207031 238.820313 L 550.375 238.820313 C 550.976563 243.347656 552.757813 246.921875 556.375 249.265625 C 561.246094 252.425781 566.589844 252.710938 571.945313 250.691406 C 573.480469 250.113281 574.65625 248.621094 576.058594 247.632813 C 576.796875 247.113281 577.671875 246.414063 578.484375 246.417969 C 587.371094 246.453125 596.257813 246.609375 605.503906 246.738281 C 605.230469 247.71875 605.109375 248.527344 604.792969 249.246094 C 600.8125 258.296875 594.300781 264.863281 585.1875 268.671875 C 573.683594 273.476563 561.777344 274.34375 549.851563 270.769531 C 533.859375 265.980469 524.816406 254.746094 521.738281 238.5625 C 520.574219 232.4375 520.507813 226.238281 522.054688 220.152344 C 525.539063 206.453125 534.402344 197.464844 547.371094 192.578125 C 557.527344 188.753906 567.996094 188.785156 578.359375 191.953125 C 585.582031 194.160156 591.585938 198.335938 596.445313 204.144531 C 603.445313 212.511719 607.941406 225.953125 607.207031 238.820313 "/>
<path style=" stroke:none;fill-rule:nonzero;fill:rgb(100%,100%,100%);fill-opacity:1;" d="M 392.207031 472.265625 C 392.09375 472.234375 391.984375 472.203125 391.871094 472.175781 C 391.652344 469.695313 391.535156 467.203125 391.179688 464.746094 C 390.949219 463.152344 390.492188 461.5625 389.917969 460.054688 C 387.402344 453.429688 381.320313 450.417969 374.460938 452.257813 C 369.042969 453.710938 366.628906 457.785156 365.480469 462.769531 C 364.003906 469.183594 364.039063 475.679688 365.523438 482.089844 C 366 484.152344 366.996094 486.15625 368.074219 488.003906 C 369.628906 490.660156 372.179688 492.132813 375.164063 492.71875 C 382.316406 494.125 387.972656 491 390.078125 484.007813 C 391.21875 480.222656 391.523438 476.1875 392.207031 472.265625 M 378.125 513.769531 C 371.636719 513.96875 365.371094 512.832031 359.421875 510.238281 C 341.109375 502.253906 333.121094 485.039063 335.066406 467.316406 C 337.496094 445.132813 354.578125 433.726563 370.375 431.472656 C 379.265625 430.203125 387.925781 430.886719 396.253906 434.285156 C 414.203125 441.617188 422.488281 458.1875 421.136719 475.917969 C 419.304688 500 399.535156 513.367188 380.730469 513.769531 C 379.863281 513.785156 378.996094 513.769531 378.125 513.769531 "/>
<path style=" stroke:none;fill-rule:nonzero;fill:rgb(100%,100%,100%);fill-opacity:1;" d="M 378.4375 231.664063 C 377.933594 227.023438 377.710938 222.492188 375.851563 218.214844 C 374.296875 214.628906 371.828125 211.960938 367.933594 211.152344 C 360.757813 209.660156 355.207031 211.980469 352.515625 219.027344 C 350.863281 223.351563 350.449219 227.921875 350.730469 232.457031 C 350.960938 236.203125 351.585938 239.996094 352.613281 243.601563 C 353.664063 247.269531 356.136719 250.082031 360.003906 251.199219 C 366.433594 253.054688 373.539063 251.445313 376.1875 243.386719 C 377.417969 239.636719 377.71875 235.582031 378.4375 231.664063 M 364.492188 189.875 C 374.097656 189.742188 383.023438 192.132813 390.839844 197.757813 C 403.285156 206.714844 408.226563 219.289063 407.382813 234.269531 C 406.046875 257.980469 386.53125 272.367188 366.222656 272.757813 C 357.226563 272.929688 348.742188 271.316406 340.9375 266.742188 C 326.148438 258.082031 319.375 242.550781 321.355469 225.792969 C 324.144531 202.238281 343.675781 190.433594 361.886719 189.878906 C 362.753906 189.851563 363.625 189.875 364.492188 189.875 "/>
<path style=" stroke:none;fill-rule:nonzero;fill:rgb(100%,100%,100%);fill-opacity:1;" d="M 377.539063 344.199219 C 376.578125 335.222656 370.703125 331.402344 362.695313 332.019531 C 355.925781 332.542969 351.183594 337.519531 351.164063 344.199219 Z M 397.183594 327.113281 C 391.316406 337.515625 390.789063 348.800781 391.703125 360.6875 L 350.710938 360.6875 C 350.796875 366.175781 354.34375 371.066406 359.359375 372.859375 C 362.816406 374.097656 366.394531 374.179688 369.960938 373.488281 C 372.242188 373.042969 374.324219 371.972656 375.710938 370.054688 C 376.742188 368.632813 377.972656 368.332031 379.605469 368.363281 C 384.144531 368.449219 388.683594 368.394531 392.957031 368.394531 C 395.054688 372.75 396.921875 376.636719 398.878906 380.707031 C 396.785156 383.53125 393.941406 385.855469 390.792969 387.804688 C 381.804688 393.378906 371.898438 395.191406 361.488281 394.785156 C 356.359375 394.585938 351.335938 393.71875 346.566406 391.769531 C 332.394531 385.972656 324.402344 375.210938 321.738281 360.339844 C 320.515625 353.53125 320.507813 346.667969 322.683594 340.042969 C 327.417969 325.636719 337.628906 316.925781 352.0625 313.195313 C 361.285156 310.8125 370.585938 311.214844 379.636719 314.40625 C 386.65625 316.882813 392.488281 321.0625 397.183594 327.113281 "/>
<path style=" stroke:none;fill-rule:nonzero;fill:rgb(100%,100%,100%);fill-opacity:1;" d="M 306.148438 511.011719 L 276.925781 511.011719 L 276.925781 433.738281 L 304.039063 433.738281 L 304.039063 443.113281 C 304.234375 443.25 304.425781 443.382813 304.621094 443.519531 C 312.476563 433.625 322.125 429.191406 334.644531 433.023438 L 334.644531 456.957031 C 330.421875 456.957031 326.3125 456.617188 322.277344 457.027344 C 314.265625 457.84375 309.242188 462.351563 307.265625 470.210938 C 306.609375 472.8125 306.25 475.554688 306.214844 478.238281 C 306.085938 487.894531 306.152344 497.554688 306.148438 507.214844 C 306.144531 508.386719 306.148438 509.558594 306.148438 511.011719 "/>
<path style=" stroke:none;fill-rule:nonzero;fill:rgb(100%,100%,100%);fill-opacity:1;" d="M 515.6875 390.40625 L 486.753906 390.40625 L 486.753906 313.511719 C 489.070313 312.867188 510.273438 312.652344 515.542969 313.21875 C 516.148438 315.566406 516.316406 386.304688 515.6875 390.40625 "/>
<path style=" stroke:none;fill-rule:nonzero;fill:rgb(100%,100%,100%);fill-opacity:1;" d="M 486.78125 182.984375 L 486.78125 162.738281 C 489.125 162.085938 511.589844 161.914063 515.933594 162.5625 C 516.277344 169.261719 516.074219 176.019531 516.058594 182.984375 Z M 486.78125 182.984375 "/>
<path style=" stroke:none;fill-rule:nonzero;fill:rgb(100%,100%,100%);fill-opacity:1;" d="M 486.671875 303.367188 L 486.671875 282.703125 C 496.339844 282.546875 505.914063 282.667969 515.867188 282.625 C 516.203125 289.644531 515.972656 296.390625 516.035156 303.367188 Z M 486.671875 303.367188 "/>
</g>
</svg>
